<svg xmlns="http://www.w3.org/2000/svg" width="24" height="24" viewBox="0 0 24 24">
    <path fill="#E2E1ED" fill-rule="evenodd" d="M12 0c6.627 0 12 5.373 12 12s-5.373 12-12 12S0 18.627 0 12 5.373 0 12 0zM8.983 9.581H6.345v7.926h2.638V9.581zm6.476-.186c-1.4 0-2.028.77-2.378 1.309V9.58h-2.638c.032.69.004 6.933 0 7.821v.105h2.638v-4.426c0-.237.017-.474.087-.643.19-.473.625-.963 1.354-.963l.146.006c.848.071 1.19.777 1.19 1.786v4.24h2.638v-4.545c0-2.434-1.301-3.567-3.037-3.567zM7.68 5.76c-.902 0-1.492.592-1.492 1.37 0 .76.572 1.37 1.458 1.37h.017l.158-.007c.827-.066 1.334-.648 1.334-1.364-.017-.777-.573-1.369-1.475-1.369z"/>
</svg>
