<?xml version="1.0" encoding="UTF-8"?>
<svg width="20px" height="20px" viewBox="0 0 20 20" version="1.1" xmlns="http://www.w3.org/2000/svg" xmlns:xlink="http://www.w3.org/1999/xlink">
    <!-- Generator: Sketch 61.2 (89653) - https://sketch.com -->
    <title>Element/Icon/location address pin</title>
    <desc>Created with Sketch.</desc>
    <g id="Element/Icon/location-address-pin" stroke="none" stroke-width="1" fill="none" fill-rule="evenodd">
        <path d="M10.0513521,2 C13.5005035,2 16.101,4.65673271 16.101,8.18086565 C16.101,12.6167061 10.8642203,17.6967062 10.6409797,17.909722 C10.4773836,18.0682057 10.2643678,18.1482997 10.0513521,18.1482997 C9.85026517,18.1482997 9.64747416,18.0784305 9.48899042,17.9352839 C9.26404577,17.7393094 4,13.0461459 4,8.18086565 C4,4.65673271 6.60049655,2 10.0513521,2 Z M10.0473241,3.2 C7.23887838,3.2 5.2,5.26655666 5.2,8.1129813 C5.2,11.6644664 8.56899475,15.3693069 10.0226219,16.8 C11.4705486,15.279538 14.892748,11.3390539 14.892748,8.1129813 C14.892748,5.26655666 12.8538696,3.2 10.0473241,3.2 Z M10.01744,5.68551369 C11.1575004,5.68551369 12.0811368,6.60915008 12.0811368,7.74921049 C12.0811368,8.88927091 11.1575004,9.81290729 10.01744,9.81290729 C8.87908366,9.81290729 7.95544728,8.88927091 7.95544728,7.74921049 C7.95544728,6.60915008 8.87908366,5.68551369 10.01744,5.68551369 Z" id="Combined-Shape" fill="#FFFFFF"></path>
    </g>
</svg>