<svg xmlns="http://www.w3.org/2000/svg" width="24" height="24" viewBox="0 0 24 24">
    <path fill="#E2E1ED" fill-rule="evenodd" d="M12 0c6.627 0 12 5.373 12 12s-5.373 12-12 12S0 18.627 0 12 5.373 0 12 0zm1.899 7.078c-1.112.404-1.814 1.445-1.734 2.585l.026.44-.444-.053c-1.619-.207-3.033-.907-4.233-2.083l-.587-.584-.151.431c-.32.96-.116 1.975.55 2.657.357.378.277.431-.337.207-.213-.072-.4-.126-.418-.099-.062.063.151.88.32 1.203.231.45.703.89 1.218 1.15l.436.206-.516.009c-.498 0-.515.009-.462.197.178.584.88 1.204 1.663 1.473l.551.188-.48.288a5.007 5.007 0 0 1-2.383.664c-.4.009-.73.045-.73.072 0 .09 1.086.592 1.717.79 1.894.584 4.144.332 5.834-.664 1.2-.71 2.4-2.12 2.961-3.484.302-.727.605-2.056.605-2.693 0-.413.026-.467.525-.961.293-.287.569-.601.622-.691.089-.17.08-.17-.373-.018-.756.27-.863.233-.49-.17.276-.288.605-.809.605-.961 0-.027-.133.017-.284.098-.16.09-.516.225-.783.306l-.48.152-.436-.296c-.24-.162-.578-.341-.756-.395-.453-.126-1.147-.108-1.556.036z"/>
</svg>
